<svg width="40" height="39" viewBox="0 0 40 39" fill="none" xmlns="http://www.w3.org/2000/svg">
<path d="M29.1232 1.65674H11.0892C6.10931 1.65674 2.07227 5.69378 2.07227 10.6737V28.7077C2.07227 33.6876 6.10931 37.7247 11.0892 37.7247H29.1232C34.1032 37.7247 38.1402 33.6876 38.1402 28.7077V10.6737C38.1402 5.69378 34.1032 1.65674 29.1232 1.65674Z" stroke="white" stroke-width="2.5" stroke-linecap="round" stroke-linejoin="round"/>
<path d="M27.3179 18.5568C27.5405 20.0577 27.2841 21.5906 26.5853 22.9373C25.8865 24.2841 24.7808 25.3762 23.4255 26.0584C22.0702 26.7405 20.5343 26.978 19.0363 26.7369C17.5383 26.4959 16.1544 25.7886 15.0816 24.7157C14.0087 23.6429 13.3014 22.259 13.0604 20.761C12.8193 19.263 13.0568 17.7271 13.7389 16.3718C14.4211 15.0165 15.5132 13.9108 16.86 13.212C18.2068 12.5132 19.7396 12.2568 21.2405 12.4794C22.7714 12.7064 24.1887 13.4198 25.2831 14.5142C26.3775 15.6086 27.0909 17.0259 27.3179 18.5568Z" stroke="white" stroke-width="2.5" stroke-linecap="round" stroke-linejoin="round"/>
<path d="M30.0254 9.77197H30.0446" stroke="white" stroke-width="2.5" stroke-linecap="round" stroke-linejoin="round"/>
</svg>
